<svg id="icons" xmlns="http://www.w3.org/2000/svg" viewBox="0 0 128 128"><defs><style>.cls-1{fill:#ffda6e;}.cls-2{fill:#f9b55a;}.cls-3{fill:#3d6ed1;}.cls-4{fill:#5282ef;}.cls-5,.cls-6,.cls-7,.cls-8,.cls-9{fill:none;stroke-linecap:round;stroke-linejoin:round;}.cls-5{stroke:#6a96ef;}.cls-5,.cls-6{stroke-width:1.953px;}.cls-6,.cls-8,.cls-9{stroke:#a2bdf4;}.cls-7{stroke:#000;}.cls-7,.cls-9{stroke-width:2px;}.cls-8{stroke-width:1.838px;}</style></defs><title>blueprint</title><path class="cls-1" d="M32.375,30H99.132C92.025,22.546,80.856,18,64,18c-15.613,0-26.345,3.9-33.491,10.4A12.976,12.976,0,0,1,32.375,30Z"/><path class="cls-1" d="M28.868,98c7.107,7.454,18.276,12,35.132,12s28.025-4.546,35.132-12Z"/><path class="cls-2" d="M39,30h2V26H55v4h2V26H71v4h2V26H87v4h2V26h5.51a34.239,34.239,0,0,0-3.14-2H89V22.77c-.24-.11-.47-.22-.71-.32-.22-.1-.44-.2-.66-.29s-.42-.18-.63-.26V24H73V18.48c-.66-.07-1.32-.14-2-.19V24H57V18.28c-.34.03-.68.06-1.01.1-.23.02-.45.04-.67.07l-.32.03V24H41V21.88c-.08.04-.17.07-.25.11-.26.11-.51.22-.76.33-.33.14-.67.3-.99.45V24H36.61q-.54.3-1.05.63c-.22.13-.43.26-.64.4-.49.31-.97.63-1.43.97H39ZM89,98H87v4H73V98H71v4H57V98H55v4H41V98H39v4H33.49a34.252,34.252,0,0,0,3.14,2H39v1.23c.24.11.47.22.71.32.22.1.44.2.66.29s.42.18.63.26V104H55v5.52c.66.07,1.32.14,2,.19V104H71v5.71c.68-.05,1.34-.12,2-.19V104H87v2.1c.21-.08.42-.17.63-.26s.44-.19.66-.29c.24-.1.47-.21.71-.32V104h2.37a34.252,34.252,0,0,0,3.14-2H89Z"/><g id="_Group_" data-name="&lt;Group&gt;"><polygon class="cls-3" points="113 81 101 93 101 81 113 81"/><path class="cls-3" d="M31,39V85a8,8,0,0,0-16,0V39a7.995,7.995,0,0,1,14.92-4A7.851,7.851,0,0,1,31,39Z"/><path class="cls-4" d="M113,35V81H101V93H23a8,8,0,1,1,8-8V39a7.851,7.851,0,0,0-1.08-4Z"/><line class="cls-5" x1="31" y1="64" x2="107" y2="64"/><line class="cls-5" x1="31" y1="56" x2="107" y2="56"/><line class="cls-5" x1="31" y1="48" x2="107" y2="48"/><path class="cls-5" d="M107,80H27c-2,0-2.85-1.82-1.55-2.61"/><line class="cls-5" x1="31" y1="72" x2="107" y2="72"/><line class="cls-5" x1="67" y1="87" x2="67" y2="41"/><line class="cls-5" x1="75" y1="87" x2="75" y2="41"/><line class="cls-5" x1="83" y1="87" x2="83" y2="41"/><line class="cls-5" x1="91" y1="87" x2="91" y2="41"/><line class="cls-5" x1="99" y1="87" x2="99" y2="41"/><line class="cls-5" x1="27" y1="87" x2="27" y2="78.08"/><line class="cls-5" x1="35" y1="87" x2="35" y2="41"/><line class="cls-5" x1="43" y1="87" x2="43" y2="41"/><line class="cls-5" x1="51" y1="87" x2="51" y2="41"/><line class="cls-5" x1="59" y1="87" x2="59" y2="41"/><path class="cls-6" d="M23,77a5,5,0,0,0,0,10h78"/><polyline class="cls-6" points="107 81 107 41 31 41"/><path class="cls-7" d="M29.92,35H113V81L101,93H23a8,8,0,1,1,8-8V39a7.851,7.851,0,0,0-1.08-4A7.995,7.995,0,0,0,15,39V85"/><polyline class="cls-7" points="101 93 101 81 113 81"/><path class="cls-6" d="M67,60a5.424,5.424,0,0,1-.02.57,4.542,4.542,0,0,1-.03.52,11.554,11.554,0,0,1-.59,2.78,11.962,11.962,0,0,1-12.95,8.02c-.18-.02-.36-.05-.54-.08a12.526,12.526,0,0,1-2.38-.68c-.19-.08-.37-.16-.56-.24a11.869,11.869,0,0,1-2.79-1.82l-.21-.18a12.418,12.418,0,0,1-1.64-1.84,3.907,3.907,0,0,1-.25-.36,11.016,11.016,0,0,1-1.25-2.41,4.03,4.03,0,0,1-.16-.45,10.616,10.616,0,0,1-.52-2.26,6,6,0,0,1-.07-.61c-.03-.32-.04-.64-.04-.96a12.39,12.39,0,0,1,.17-2.04,12.024,12.024,0,0,1,13.54-9.84c.22.03.44.07.65.11a11.949,11.949,0,0,1,3.23,1.15c.11.05.21.11.32.17a12.158,12.158,0,0,1,2.97,2.37l.24.27a11.871,11.871,0,0,1,1.73,2.67c.05.1.1.21.14.31a11.2,11.2,0,0,1,.65,1.9c.04.16.08.33.12.5A12.14,12.14,0,0,1,67,60Z"/><rect class="cls-8" x="75" y="64" width="16" height="16"/><line class="cls-8" x1="86.54" y1="80" x2="75" y2="70.63"/><line class="cls-8" x1="91" y1="78.9" x2="75" y2="70.1"/><line class="cls-8" x1="80.8" y1="80" x2="75" y2="74.73"/><line class="cls-8" x1="85.6" y1="80" x2="75" y2="73.76"/><line class="cls-8" x1="79.57" y1="80" x2="75" y2="77.33"/><line class="cls-8" x1="91" y1="75.29" x2="75" y2="66.14"/><line class="cls-8" x1="91" y1="78.5" x2="75" y2="66.5"/><line class="cls-8" x1="91" y1="72.35" x2="75.82" y2="64"/><line class="cls-8" x1="91" y1="74.9" x2="75.43" y2="64"/><line class="cls-8" x1="91" y1="68.88" x2="81.78" y2="64"/><line class="cls-8" x1="91" y1="71.75" x2="80.67" y2="64"/><line class="cls-8" x1="91" y1="67.67" x2="86.6" y2="64"/><polygon class="cls-9" points="99 48 99 56 96.8 55.27 94.5 54.5 93.71 54.24 91.54 53.51 90.39 53.13 87.56 52.19 86.69 51.9 84 51 82.2 50.4 79.85 49.62 75 48 99 48"/><line class="cls-6" x1="66.95" y1="61.09" x2="52.87" y2="71.81"/><line class="cls-6" x1="66.36" y1="63.87" x2="53.41" y2="71.89"/><line class="cls-6" x1="66.76" y1="57.57" x2="49.93" y2="70.89"/><line class="cls-6" x1="66.98" y1="60.57" x2="50.49" y2="71.13"/><line class="cls-6" x1="65.99" y1="55.17" x2="46.93" y2="68.89"/><line class="cls-6" x1="66.64" y1="57.07" x2="47.14" y2="69.07"/><line class="cls-6" x1="64.12" y1="52.19" x2="45.04" y2="66.69"/><line class="cls-6" x1="65.85" y1="54.86" x2="45.29" y2="67.05"/><line class="cls-6" x1="60.91" y1="49.55" x2="43.63" y2="63.83"/><line class="cls-6" x1="63.88" y1="51.92" x2="43.79" y2="64.28"/><line class="cls-6" x1="57.36" y1="48.23" x2="43.04" y2="60.96"/><line class="cls-6" x1="60.59" y1="49.38" x2="43.11" y2="61.57"/><line class="cls-6" x1="56.71" y1="48.12" x2="43.17" y2="57.96"/><line class="cls-9" x1="80.25" y1="48" x2="79.85" y2="49.62"/><line class="cls-9" x1="85" y1="48" x2="84" y2="51"/><line class="cls-9" x1="82.2" y1="50.4" x2="81.67" y2="48"/><line class="cls-9" x1="88.4" y1="48" x2="87.56" y2="52.19"/><line class="cls-9" x1="86.69" y1="51.9" x2="86.3" y2="48"/><line class="cls-9" x1="92.49" y1="48" x2="91.54" y2="53.51"/><line class="cls-9" x1="90.39" y1="53.13" x2="89.51" y2="48"/><line class="cls-9" x1="95.43" y1="48" x2="94.5" y2="54.5"/><line class="cls-9" x1="93.71" y1="54.24" x2="93.23" y2="48"/><line class="cls-9" x1="96.8" y1="55.27" x2="96.29" y2="48"/></g></svg>