<svg id="icons" xmlns="http://www.w3.org/2000/svg" viewBox="0 0 128 128"><defs><style>.cls-1{fill:#b7e29c;}.cls-2{fill:#97cc83;}.cls-3{fill:#f4d647;}.cls-4{fill:#f4a742;}.cls-5{fill:#5282ef;}.cls-6{fill:#a2bdf4;}.cls-7{fill:none;stroke:#000;stroke-linecap:round;stroke-linejoin:round;stroke-width:2px;}</style></defs><title>safety-glasses</title><path class="cls-1" d="M48,37a33.319,33.319,0,0,1,8.56,1.083A27.63,27.63,0,0,0,64,39a27.643,27.643,0,0,0,7.44-.917A33.308,33.308,0,0,1,80,37h22.474a1,1,0,0,0,.85-1.536C96.759,24.828,84.651,18,64,18S31.241,24.828,24.675,35.464A1,1,0,0,0,25.526,37Z"/><path class="cls-1" d="M90,91c-15.884,0-19.965-7.631-22.665-12.681C65.561,75,64.656,75,64,75s-1.56,0-3.335,3.319C57.964,83.369,53.883,91,38,91c-5.978,0-10.526-1.4-13.985-3.723a1,1,0,0,0-1.487,1.229C28.428,101.418,40.846,110,64,110s35.572-8.582,41.473-21.495a1,1,0,0,0-1.487-1.229C100.526,89.6,95.978,91,90,91Z"/><path class="cls-2" d="M67.33,78.32a26.676,26.676,0,0,0,4.57,6.64,282.35,282.35,0,0,0-15.14,24.73C38.2,108.07,27.78,100,22.53,88.51a1,1,0,0,1,1.48-1.23C27.47,89.6,32.02,91,38,91c15.88,0,19.96-7.63,22.67-12.68C62.44,75,63.34,75,64,75S65.56,75,67.33,78.32Z"/><path class="cls-2" d="M102.47,37H80a33.7,33.7,0,0,0-8.56,1.08c-.89.21-1.73.41-2.67.57A170.727,170.727,0,0,1,91.95,24.34a32.506,32.506,0,0,1,11.37,11.12A1,1,0,0,1,102.47,37Z"/><g id="_Group_" data-name="&lt;Group&gt;"><path class="cls-3" d="M113,46v4a2.006,2.006,0,0,1-2,2h-4.33c-.23,0-.45-.01-.68-.02a11.881,11.881,0,0,1-2.59-.43l-7.39-2.1A12,12,0,0,0,92.74,49s-10.25,2.86-27.5,2.99h-.01c-.41.01-.82.01-1.23.01-5.4,0-10.14-.27-14.14-.65h-.01A91.913,91.913,0,0,1,35.26,49a12,12,0,0,0-3.27.45l-7.39,2.1a11.881,11.881,0,0,1-2.59.43c-.23.01-.45.02-.68.02H17a2.006,2.006,0,0,1-2-2V46a4,4,0,0,1,4-4H48c7,0,8,2,16,2s9-2,16-2h29A4,4,0,0,1,113,46Z"/><path class="cls-4" d="M106.67,52h3.32c0,17-1.04,34-19.99,34C68,86,75,70,64,70S60,86,38,86C19.05,86,18.01,69,18.01,52h3.32c.23,0,.45-.01.68-.02V52c0,7.02.29,12.77,1.22,17.29a21.68,21.68,0,0,0,2.42,6.75C28.03,80.04,31.88,82,38,82c10.49,0,12.45-3.67,14.73-7.92C54.55,70.67,57.05,66,64,66s9.45,4.67,11.27,8.08C77.55,78.33,79.51,82,90,82c13.6,0,15.99-9.67,15.99-30v-.02C106.22,51.99,106.44,52,106.67,52Z"/><path class="cls-5" d="M105.99,51.98V52c0,20.33-2.39,30-15.99,30-10.49,0-12.45-3.67-14.73-7.92C73.45,70.67,70.95,66,64,66s-9.45,4.67-11.27,8.08C50.45,78.33,48.49,82,38,82c-6.12,0-9.97-1.96-12.35-5.96,6.37-7.39,18.66-18.12,39.58-24.05h.01C82.49,51.86,92.74,49,92.74,49a12,12,0,0,1,3.27.45l7.39,2.1A11.881,11.881,0,0,0,105.99,51.98Z"/><path class="cls-6" d="M64,52c.41,0,.82,0,1.23-.01C44.31,57.92,32.02,68.65,25.65,76.04a21.68,21.68,0,0,1-2.42-6.75A60.754,60.754,0,0,1,49.85,51.35h.01C53.86,51.73,58.6,52,64,52Z"/><path class="cls-5" d="M35.26,49a91.913,91.913,0,0,0,14.59,2.35A60.754,60.754,0,0,0,23.23,69.29C22.3,64.77,22.01,59.02,22.01,52v-.02a11.881,11.881,0,0,0,2.59-.43l7.39-2.1A12,12,0,0,1,35.26,49Z"/><path class="cls-7" d="M18.01,52c0,17,1.04,34,19.99,34,22,0,15-16,26-16s4,16,26,16c18.95,0,19.99-17,19.99-34"/><path class="cls-7" d="M65.24,51.99C82.49,51.86,92.74,49,92.74,49a12,12,0,0,1,3.27.45l7.39,2.1a11.881,11.881,0,0,0,2.59.43c.23.01.45.02.68.02H111a2.006,2.006,0,0,0,2-2V46a4,4,0,0,0-4-4H80c-7,0-8,2-16,2s-9-2-16-2H19a4,4,0,0,0-4,4v4a2.006,2.006,0,0,0,2,2h4.33c.23,0,.45-.01.68-.02a11.881,11.881,0,0,0,2.59-.43l7.39-2.1A12,12,0,0,1,35.26,49a91.913,91.913,0,0,0,14.59,2.35"/><path class="cls-7" d="M49.86,51.35c4,.38,8.74.65,14.14.65.41,0,.82,0,1.23-.01"/><path class="cls-7" d="M105.99,51.98V52c0,20.33-2.39,30-15.99,30-10.49,0-12.45-3.67-14.73-7.92C73.45,70.67,70.95,66,64,66s-9.45,4.67-11.27,8.08C50.45,78.33,48.49,82,38,82c-6.12,0-9.97-1.96-12.35-5.96a21.68,21.68,0,0,1-2.42-6.75C22.3,64.77,22.01,59.02,22.01,52v-.02"/><path class="cls-7" d="M23.23,69.29A60.754,60.754,0,0,1,49.85,51.35h.01"/><path class="cls-7" d="M25.65,76.04c6.37-7.39,18.66-18.12,39.58-24.05h.01"/></g></svg>